<?xml version="1.0" standalone="no"?>
<!DOCTYPE svg PUBLIC "-//W3C//DTD SVG 20010904//EN"
 "http://www.w3.org/TR/2001/REC-SVG-20010904/DTD/svg10.dtd">
<svg version="1.0" xmlns="http://www.w3.org/2000/svg"
 width="1024.000000pt" height="1024.000000pt" viewBox="0 0 1024.000000 1024.000000"
 preserveAspectRatio="xMidYMid meet">
<metadata>
Created by potrace 1.11, written by Peter Selinger 2001-2013
</metadata>
<g transform="translate(0.000000,1024.000000) scale(0.100000,-0.100000)"
fill="#000000" stroke="none">
<path d="M4818 8720 c-1312 -73 -2640 -604 -3395 -1358 -441 -441 -680 -899
-744 -1424 -15 -129 -7 -514 14 -624 48 -253 108 -433 212 -639 214 -422 540
-778 1114 -1215 l33 -25 -388 -880 c-344 -782 -387 -886 -388 -932 0 -42 5
-57 24 -79 34 -36 72 -54 114 -54 38 0 -55 -55 1344 794 l852 517 138 -30
c907 -195 1886 -208 2757 -36 504 100 964 254 1379 462 204 102 284 148 466
269 756 501 1211 1155 1326 1904 25 161 29 434 9 590 -177 1392 -1710 2497
-3780 2724 -313 34 -816 51 -1087 36z m887 -294 c630 -56 1182 -181 1690 -383
1105 -441 1822 -1153 1996 -1984 30 -147 38 -448 15 -614 -41 -301 -136 -566
-300 -838 -500 -830 -1601 -1450 -2926 -1647 -785 -116 -1632 -84 -2414 91
-226 51 -97 110 -1136 -521 -497 -302 -906 -547 -908 -545 -2 2 139 329 314
727 348 791 345 781 293 846 -13 17 -67 64 -119 104 -339 259 -643 538 -794
728 -352 443 -507 923 -466 1440 32 407 187 778 466 1116 427 517 1119 950
1954 1222 470 153 928 239 1470 276 119 8 705 -4 865 -18z"/>
</g>
</svg>
